<svg xmlns="http://www.w3.org/2000/svg" xmlns:xlink="http://www.w3.org/1999/xlink" version="1.1" x="0px" y="0px" viewBox="0 0 512 640" style="enable-background:new 0 0 512 512;" xml:space="preserve"><g><path d="M283.94,283.93c-3.36,3.36-5.22,7.84-5.22,12.59s1.85,9.23,5.22,12.59c3.36,3.36,7.84,5.22,12.59,5.22   c4.76,0,9.23-1.85,12.59-5.22c6.94-6.94,6.94-18.24,0-25.19c-3.36-3.36-7.84-5.22-12.59-5.22   C291.78,278.71,287.3,280.57,283.94,283.93z"/><path d="M215.49,233.29c4.76,0,9.23-1.85,12.59-5.22c6.94-6.94,6.94-18.24,0-25.19c-3.36-3.36-7.84-5.22-12.59-5.22   c-4.76,0-9.23,1.85-12.59,5.22c-3.36,3.36-5.22,7.84-5.22,12.59s1.85,9.23,5.22,12.59C206.26,231.44,210.73,233.29,215.49,233.29z"/><path d="M153.21,203.59c-2.93,2.2-6.57,3.41-10.24,3.41c-1.79,0-3.56-0.28-5.26-0.83l-5.4-1.75c-2.03-0.66-4.22,0.4-4.98,2.39   c-6,15.68-9.22,32.74-9.04,50.57c0.74,75.2,62.52,136.35,137.73,136.34c76.06-0.01,137.71-61.66,137.71-137.72   c0-75.21-61.14-136.99-136.35-137.72c-17.83-0.17-34.88,3.05-50.56,9.05c-2,0.76-3.05,2.95-2.39,4.98l1.65,5.09   c1.28,3.96,1.24,8.28-0.37,12.12c-2.82,6.7-9.39,10.75-16.29,10.5l-13.13-0.39c-4.52-0.13-8.73,1.55-11.91,4.73   c-3.18,3.18-4.86,7.41-4.73,11.91l0.39,13.16C160.19,194.97,157.64,200.27,153.21,203.59z M321.43,321.43   C321.43,321.43,321.43,321.43,321.43,321.43c-6.65,6.65-15.49,10.31-24.9,10.31s-18.25-3.66-24.9-10.31   c-6.65-6.65-10.31-15.49-10.31-24.9s3.66-18.25,10.31-24.9c6.65-6.65,15.49-10.31,24.9-10.31s18.25,3.66,24.9,10.31   C335.16,285.36,335.16,307.7,321.43,321.43z M302.91,196.8c3.4-3.4,8.91-3.4,12.3,0c3.4,3.4,3.4,8.91,0,12.31l-106.1,106.1   c-1.7,1.7-3.93,2.55-6.15,2.55s-4.45-0.85-6.15-2.55c-3.4-3.4-3.4-8.91,0-12.31L302.91,196.8z M190.59,190.58   c6.65-6.65,15.49-10.31,24.9-10.31s18.25,3.66,24.9,10.31c13.73,13.73,13.73,36.07,0,49.8c0,0,0,0,0,0   c-6.65,6.65-15.49,10.31-24.9,10.31s-18.25-3.66-24.9-10.31c-6.65-6.65-10.31-15.49-10.31-24.9S183.94,197.23,190.59,190.58z"/><path d="M495.21,264.86L485,256.52c-4.99-4.08-7.99-9.87-8.45-16.29c-0.46-6.43,1.69-12.58,6.05-17.33l8.92-9.7   c2.21-2.41,3.12-5.75,2.43-8.94s-2.9-5.86-5.91-7.14l-12.17-5.15c-5.93-2.51-10.43-7.22-12.68-13.25   c-2.25-6.03-1.92-12.54,0.92-18.32l5.83-11.85c1.44-2.94,1.37-6.4-0.2-9.27c-1.57-2.87-4.45-4.8-7.7-5.17l-13.1-1.49   c-6.4-0.73-12.05-3.97-15.92-9.12c-3.87-5.15-5.39-11.49-4.3-17.84l2.24-13.01c0.55-3.22-0.49-6.52-2.8-8.83   c-2.31-2.31-5.61-3.35-8.83-2.8l-13.01,2.24c-6.35,1.09-12.68-0.43-17.84-4.3c-5.15-3.86-8.39-9.52-9.12-15.92l-1.49-13.1   c-0.37-3.25-2.3-6.13-5.17-7.69c-2.87-1.57-6.34-1.64-9.27-0.2l-11.85,5.83c-5.78,2.84-12.28,3.17-18.32,0.92   c-6.03-2.25-10.74-6.75-13.25-12.68l-5.15-12.17c-1.27-3.01-3.94-5.22-7.14-5.91c-3.2-0.69-6.54,0.21-8.95,2.43l-9.7,8.92   c-4.74,4.36-10.9,6.51-17.33,6.05c-6.43-0.46-12.21-3.46-16.29-8.45l-8.34-10.2c-2.07-2.53-5.23-3.9-8.51-3.67   c-3.26,0.23-6.21,2.04-7.9,4.84l-6.82,11.3c-0.63,1.04-2.17,2.94-4.13,5.07c-0.02,0.02-0.04,0.04-0.06,0.07v0   c-6.2,6.64-9.12,15.98-7.8,24.99c0.67,4.56,2.34,8.82,4.96,12.65l7.45,10.88c0.57,0.83,0.7,1.86,0.34,2.8   c-0.35,0.95-1.12,1.64-2.09,1.89l-12.78,3.36c-4.5,1.18-8.55,3.32-11.96,6.24c2.43-10.24,1.06-21.1-4.43-30.4   c-0.86-1.45-2.11-2.5-3.54-3.09c4.37-3.2,8.83-6.4,13.39-9.6c1.58-1.11,1.97-3.29,0.86-4.88s-3.29-1.97-4.88-0.86   c-32.47,22.76-60.31,45.67-82.75,68.11c-38.23,38.23-68.34,82.83-78.24,97.49c-0.09,0.13-0.17,0.26-0.23,0.4   c-0.95,1.92-2.16,3.68-3.59,5.25c-0.08,0.08-0.16,0.17-0.24,0.26c-1.45,1.54-3.1,2.9-4.95,4.01l-11.3,6.82   c-2.8,1.69-4.61,4.64-4.84,7.9c-0.23,3.26,1.14,6.44,3.67,8.51L27,255.48c4.99,4.08,7.99,9.87,8.45,16.29   c0.46,6.43-1.69,12.58-6.05,17.33l-8.92,9.7c-2.21,2.41-3.12,5.75-2.43,8.94s2.9,5.86,5.91,7.14l12.17,5.15   c5.93,2.51,10.43,7.22,12.68,13.25c2.25,6.03,1.92,12.54-0.92,18.32l-5.83,11.85c-1.44,2.94-1.37,6.4,0.2,9.27   c1.57,2.87,4.45,4.8,7.7,5.17l13.1,1.49c6.4,0.73,12.05,3.97,15.92,9.12c3.87,5.15,5.39,11.49,4.3,17.84l-2.24,13.01   c-0.55,3.22,0.49,6.52,2.8,8.83c2.31,2.31,5.61,3.35,8.83,2.8l13.01-2.24c6.35-1.1,12.68,0.43,17.84,4.3   c5.15,3.86,8.39,9.52,9.12,15.92l1.49,13.1c0.37,3.25,2.3,6.13,5.17,7.69c2.87,1.57,6.34,1.64,9.27,0.2l11.85-5.83   c5.78-2.84,12.28-3.17,18.32-0.92c6.03,2.25,10.74,6.75,13.25,12.68l5.15,12.17c1.27,3.01,3.94,5.22,7.14,5.91   c3.19,0.69,6.54-0.21,8.95-2.43l9.7-8.92c4.74-4.36,10.89-6.51,17.33-6.05c6.43,0.46,12.21,3.46,16.29,8.45l8.34,10.2   c1.92,2.35,4.79,3.7,7.79,3.7c0.24,0,0.47-0.01,0.71-0.03c3.26-0.23,6.21-2.04,7.9-4.84l6.82-11.3c3.33-5.51,8.63-9.3,14.93-10.67   c6.3-1.37,12.69-0.11,18,3.53l10.88,7.45c2.7,1.85,6.14,2.27,9.2,1.13c3.06-1.14,5.39-3.71,6.22-6.87l3.36-12.78   c1.64-6.23,5.65-11.35,11.3-14.44s12.13-3.69,18.26-1.71l12.58,4.08c3.11,1.01,6.53,0.44,9.14-1.52c2.61-1.96,4.12-5.08,4.02-8.35   l-0.39-13.16c-0.19-6.45,2.22-12.51,6.78-17.07c4.56-4.56,10.59-6.97,17.07-6.78l13.15,0.39c3.29,0.09,6.39-1.41,8.35-4.02   c1.96-2.61,2.53-6.03,1.52-9.14l-4.08-12.58c-2.76-8.52-0.46-17.67,6-23.88c1.39-1.34,1.44-3.55,0.1-4.95   c-1.34-1.39-3.55-1.44-4.95-0.1c-8.41,8.08-11.41,19.99-7.81,31.08l4.08,12.57c0.31,0.96,0.14,1.98-0.46,2.79   c-0.61,0.81-1.52,1.26-2.54,1.23l-13.16-0.39c-8.37-0.24-16.28,2.89-22.22,8.82c-5.94,5.94-9.07,13.83-8.82,22.22l0.39,13.16   c0.03,1.01-0.42,1.94-1.23,2.54c-0.81,0.61-1.82,0.78-2.79,0.46l-12.58-4.08c-7.98-2.58-16.42-1.79-23.77,2.23   c-7.36,4.02-12.58,10.7-14.71,18.81l-3.36,12.78c-0.26,0.98-0.95,1.74-1.9,2.09c-0.95,0.35-1.97,0.23-2.8-0.34l-10.88-7.45   c-6.92-4.74-15.25-6.37-23.44-4.6c-8.2,1.78-15.1,6.71-19.44,13.89l-6.82,11.3c-0.52,0.86-1.4,1.4-2.41,1.47   c-1.01,0.07-1.95-0.34-2.59-1.12l-8.34-10.21c-5.31-6.5-12.85-10.4-21.22-11c-8.37-0.6-16.38,2.2-22.56,7.88l-9.7,8.92   c-0.74,0.68-1.74,0.95-2.72,0.74c-0.99-0.21-1.78-0.87-2.17-1.8l-5.15-12.17c-3.27-7.72-9.4-13.58-17.25-16.51   c-7.86-2.93-16.33-2.5-23.85,1.2l-11.85,5.83c-0.91,0.45-1.94,0.42-2.82-0.06c-0.89-0.49-1.46-1.34-1.58-2.34l-1.49-13.1   c-0.95-8.33-5.17-15.7-11.88-20.73c-6.71-5.03-14.96-7.02-23.23-5.59l-13.01,2.24c-1,0.17-1.97-0.14-2.69-0.85   c-0.71-0.71-1.03-1.69-0.85-2.69l2.24-13.01c1.42-8.27-0.56-16.52-5.59-23.23c-5.03-6.71-12.39-10.93-20.73-11.88l-13.1-1.49   c-1-0.11-1.86-0.69-2.34-1.58c-0.48-0.89-0.51-1.92-0.06-2.82l5.83-11.85c3.7-7.52,4.13-15.99,1.2-23.85   c-2.93-7.86-8.79-13.98-16.51-17.25l-12.17-5.15c-0.93-0.39-1.59-1.19-1.8-2.17c-0.21-0.99,0.06-1.98,0.74-2.72l8.92-9.7   c5.68-6.18,8.48-14.19,7.88-22.56c-0.6-8.37-4.5-15.91-11-21.22l-10.21-8.34c-0.78-0.64-1.19-1.58-1.12-2.59   c0.07-1.01,0.61-1.88,1.47-2.41l11.3-6.82c2.32-1.4,4.42-3.1,6.27-5.04c0.01-0.01,0.03-0.02,0.04-0.03   c7.86-7.34,20.02-8.26,28.9-2.17l10.88,7.45c2.7,1.85,6.14,2.27,9.2,1.13c3.07-1.14,5.39-3.71,6.22-6.87l3.36-12.78   c1.64-6.23,5.65-11.35,11.3-14.44c5.65-3.09,12.13-3.69,18.26-1.71l12.58,4.08c3.11,1.01,6.53,0.44,9.14-1.52   c2.62-1.96,4.12-5.08,4.02-8.35l-0.39-13.16c-0.19-6.45,2.22-12.51,6.78-17.07c4.56-4.56,10.62-6.97,17.07-6.78l13.15,0.39   c3.28,0.1,6.39-1.41,8.35-4.02c1.96-2.61,2.53-6.03,1.52-9.14l-4.08-12.58c-1.98-6.12-1.38-12.61,1.71-18.26s8.22-9.66,14.44-11.3   l12.78-3.36c3.16-0.83,5.73-3.16,6.87-6.22c0.84-2.26,0.83-4.72,0.02-6.94c8.16-1.14,16.46-1.73,24.74-1.73   c97.33,0,176.51,79.18,176.51,176.51S353.33,432.51,256,432.51S79.49,353.33,79.49,256c0-3.5,0.1-7.04,0.31-10.54   c0.11-1.93-1.36-3.59-3.29-3.7c-1.92-0.1-3.59,1.36-3.7,3.29c-0.21,3.63-0.32,7.31-0.32,10.95c0,101.19,82.32,183.51,183.51,183.51   S439.51,357.19,439.51,256S357.19,72.49,256,72.49c-9.64,0-19.31,0.76-28.77,2.25l-4.57-6.67c-2.02-2.94-3.3-6.21-3.81-9.71   c-1.01-6.92,1.22-14.1,5.99-19.2c0.04-0.04,0.07-0.08,0.11-0.12l0,0c1.64-1.79,3.83-4.32,4.96-6.18l6.82-11.3   c0.52-0.86,1.4-1.4,2.41-1.47c1-0.07,1.95,0.33,2.59,1.12l8.34,10.21c5.31,6.5,12.85,10.4,21.22,11c8.37,0.6,16.38-2.2,22.56-7.88   l9.7-8.92c0.74-0.68,1.74-0.95,2.72-0.74c0.99,0.21,1.78,0.87,2.17,1.8l5.15,12.17c3.27,7.72,9.4,13.58,17.25,16.51   c7.86,2.93,16.33,2.5,23.85-1.2l11.85-5.83c0.91-0.45,1.94-0.42,2.82,0.06c0.89,0.48,1.46,1.34,1.58,2.34l1.49,13.1   c0.95,8.33,5.17,15.7,11.88,20.73c6.71,5.03,14.96,7.02,23.23,5.59l13.01-2.24c0.99-0.17,1.97,0.14,2.69,0.85   c0.71,0.71,1.03,1.69,0.85,2.69l-2.24,13.01c-1.43,8.27,0.56,16.52,5.59,23.23s12.39,10.93,20.73,11.88l13.1,1.49   c1,0.11,1.86,0.69,2.34,1.58c0.49,0.89,0.51,1.92,0.06,2.82l-5.83,11.85c-3.7,7.52-4.13,15.99-1.2,23.85   c2.93,7.86,8.79,13.98,16.51,17.25l12.17,5.15c0.93,0.39,1.59,1.19,1.8,2.17c0.21,0.99-0.06,1.98-0.74,2.72l-8.92,9.7   c-5.68,6.18-8.48,14.19-7.88,22.56c0.6,8.37,4.5,15.91,11,21.22l10.21,8.34c0.78,0.64,1.19,1.58,1.12,2.59   c-0.07,1.01-0.61,1.88-1.47,2.41l-11.3,6.82c-7.18,4.33-12.11,11.24-13.89,19.44c-1.78,8.2-0.14,16.52,4.6,23.44l7.45,10.88   c0.57,0.83,0.7,1.86,0.34,2.8c-0.35,0.95-1.12,1.64-2.09,1.9c-1.87,0.49-2.99,2.41-2.5,4.28c0.41,1.57,1.83,2.61,3.38,2.61   c0.29,0,0.59-0.04,0.89-0.12c3.16-0.83,5.73-3.16,6.87-6.22s0.72-6.5-1.13-9.2l-7.45-10.88c-3.64-5.31-4.89-11.71-3.53-18.01   c1.37-6.3,5.15-11.6,10.67-14.93l11.3-6.82c2.8-1.69,4.61-4.64,4.84-7.9C499.11,270.11,497.74,266.93,495.21,264.86z"/></g><text x="0" y="527" fill="#000000" font-size="5px" font-weight="bold" font-family="'Helvetica Neue', Helvetica, Arial-Unicode, Arial, Sans-serif">Created by iconfield</text><text x="0" y="532" fill="#000000" font-size="5px" font-weight="bold" font-family="'Helvetica Neue', Helvetica, Arial-Unicode, Arial, Sans-serif">from the Noun Project</text></svg>
