<svg width="100" height="100" viewBox="0 0 100 100" fill="none" xmlns="http://www.w3.org/2000/svg">
<path d="M97.5 64.6875H95V47.5857C95 45.5766 94.2031 43.6465 92.7969 42.2227L77.1875 26.4182C75.7813 24.9943 73.875 24.1875 71.8906 24.1875H65V16.5938C65 12.4014 61.6406 9 57.5 9H17.5C13.3594 9 10 12.4014 10 16.5938V24.1875H1.25C0.5625 24.1875 0 24.757 0 25.4531V27.9844C0 28.6805 0.5625 29.25 1.25 29.25H43.75C44.4375 29.25 45 29.8195 45 30.5156V33.0469C45 33.743 44.4375 34.3125 43.75 34.3125H6.25C5.5625 34.3125 5 34.882 5 35.5781V38.1094C5 38.8055 5.5625 39.375 6.25 39.375H38.75C39.4375 39.375 40 39.9445 40 40.6406V43.1719C40 43.868 39.4375 44.4375 38.75 44.4375H1.25C0.5625 44.4375 0 45.007 0 45.7031V48.2344C0 48.9305 0.5625 49.5 1.25 49.5H33.75C34.4375 49.5 35 50.0695 35 50.7656V53.2969C35 53.993 34.4375 54.5625 33.75 54.5625H10V74.8125C10 83.1973 16.7187 90 25 90C33.2813 90 40 83.1973 40 74.8125H60C60 83.1973 66.7187 90 75 90C83.2812 90 90 83.1973 90 74.8125H97.5C98.875 74.8125 100 73.6734 100 72.2812V67.2188C100 65.8266 98.875 64.6875 97.5 64.6875ZM25 82.4063C20.8594 82.4063 17.5 79.0049 17.5 74.8125C17.5 70.6201 20.8594 67.2188 25 67.2188C29.1406 67.2188 32.5 70.6201 32.5 74.8125C32.5 79.0049 29.1406 82.4063 25 82.4063ZM75 82.4063C70.8594 82.4063 67.5 79.0049 67.5 74.8125C67.5 70.6201 70.8594 67.2188 75 67.2188C79.1406 67.2188 82.5 70.6201 82.5 74.8125C82.5 79.0049 79.1406 82.4063 75 82.4063ZM87.5 49.5H65V31.7813H71.8906L87.5 47.5857V49.5Z" fill="url(#paint0_linear_722_979)"/>
<defs>
<linearGradient id="paint0_linear_722_979" x1="6.36364" y1="54.5625" x2="96.3639" y2="53.6646" gradientUnits="userSpaceOnUse">
<stop stop-color="#FF9385"/>
<stop offset="1" stop-color="#FF512F"/>
</linearGradient>
</defs>
</svg>
