<svg width="100" height="100" viewBox="0 0 100 100" fill="none" xmlns="http://www.w3.org/2000/svg">
<g clip-path="url(#clip0_722_975)">
<path d="M50 0C22.3857 0 0 22.3857 0 50C0 77.6143 22.3857 100 50 100C77.6143 100 100 77.6143 100 50C100 22.3857 77.6143 0 50 0ZM32.4098 69.8975C32.4098 71.2121 31.3439 72.2779 30.0293 72.2779H22.8883C21.5736 72.2779 20.5078 71.2121 20.5078 69.8975V40.1428C20.5078 38.8281 21.5736 37.7623 22.8883 37.7623H30.0293C31.3439 37.7623 32.4098 38.8281 32.4098 40.1428V69.8975ZM81.2404 45.6893L75.6969 66.9393C74.8766 70.0838 72.0367 72.2777 68.7871 72.2777H49.0723C43.8137 72.2777 39.5508 68.0148 39.5508 62.7563V41.7064C39.5508 39.1813 40.5539 36.7594 42.3396 34.9738L56.1785 21.135C56.9631 20.3504 58.027 19.9098 59.1365 19.9098C62.2945 19.9098 64.3137 23.275 62.8275 26.0615L58.4912 34.192C57.6287 35.8094 58.8006 37.7625 60.6336 37.7625H75.1164C78.6119 37.7625 81.4455 40.5961 81.4455 44.0916C81.4453 44.6307 81.3764 45.1676 81.2404 45.6893Z" fill="url(#paint0_linear_722_975)"/>
</g>
<defs>
<linearGradient id="paint0_linear_722_975" x1="50" y1="0" x2="50" y2="100" gradientUnits="userSpaceOnUse">
<stop stop-color="#4364F7"/>
<stop offset="1" stop-color="#7AB2FF"/>
</linearGradient>
<clipPath id="clip0_722_975">
<rect width="100" height="100" fill="white"/>
</clipPath>
</defs>
</svg>
