<svg width="100" height="100" viewBox="0 0 100 100" fill="none" xmlns="http://www.w3.org/2000/svg">
<g clip-path="url(#clip0_722_973)">
<path d="M50 0C40.111 0 30.444 2.93245 22.2215 8.42652C13.999 13.9206 7.59043 21.7295 3.80605 30.8658C0.0216642 40.0021 -0.968502 50.0555 0.960758 59.7545C2.89002 69.4535 7.65206 78.3627 14.6447 85.3553C21.6373 92.3479 30.5465 97.11 40.2455 99.0392C49.9445 100.969 59.9979 99.9783 69.1342 96.194C78.2705 92.4096 86.0794 86.0009 91.5735 77.7785C97.0675 69.556 100 59.889 100 50C100 43.4339 98.7067 36.9321 96.194 30.8658C93.6812 24.7995 89.9983 19.2876 85.3553 14.6447C80.7124 10.0017 75.2005 6.31876 69.1342 3.80602C63.0679 1.29329 56.5661 0 50 0ZM32.5 22.5C34.4778 22.5 36.4112 23.0865 38.0557 24.1853C39.7002 25.2841 40.9819 26.8459 41.7388 28.6732C42.4957 30.5004 42.6937 32.5111 42.3079 34.4509C41.922 36.3907 40.9696 38.1725 39.5711 39.5711C38.1726 40.9696 36.3907 41.922 34.4509 42.3078C32.5111 42.6937 30.5004 42.4957 28.6732 41.7388C26.8459 40.9819 25.2841 39.7002 24.1853 38.0557C23.0865 36.4112 22.5 34.4778 22.5 32.5C22.5 29.8478 23.5536 27.3043 25.4289 25.4289C27.3043 23.5536 29.8479 22.5 32.5 22.5ZM33.535 73.535C33.0738 74.0125 32.5221 74.3934 31.912 74.6555C31.302 74.9175 30.6459 75.0555 29.982 75.0612C29.3181 75.067 28.6597 74.9405 28.0452 74.6891C27.4308 74.4377 26.8725 74.0664 26.403 73.597C25.9336 73.1275 25.5623 72.5692 25.3109 71.9547C25.0595 71.3403 24.933 70.6819 24.9388 70.018C24.9445 69.3541 25.0825 68.698 25.3445 68.088C25.6066 67.4779 25.9875 66.9262 26.465 66.465L66.465 26.465C66.9262 25.9874 67.478 25.6065 68.088 25.3445C68.698 25.0824 69.3541 24.9445 70.018 24.9387C70.6819 24.933 71.3403 25.0595 71.9548 25.3109C72.5693 25.5623 73.1275 25.9336 73.597 26.403C74.0664 26.8725 74.4377 27.4307 74.6891 28.0452C74.9405 28.6597 75.067 29.3181 75.0613 29.982C75.0555 30.6459 74.9176 31.302 74.6555 31.912C74.3935 32.522 74.0126 33.0738 73.535 33.535L33.535 73.535ZM67.5 77.5C65.5222 77.5 63.5888 76.9135 61.9443 75.8147C60.2998 74.7159 59.0181 73.1541 58.2612 71.3268C57.5043 69.4996 57.3063 67.4889 57.6922 65.5491C58.078 63.6093 59.0304 61.8274 60.4289 60.4289C61.8275 59.0304 63.6093 58.078 65.5491 57.6921C67.4889 57.3063 69.4996 57.5043 71.3268 58.2612C73.1541 59.0181 74.7159 60.2998 75.8147 61.9443C76.9135 63.5888 77.5 65.5222 77.5 67.5C77.5 70.1521 76.4464 72.6957 74.5711 74.571C72.6957 76.4464 70.1522 77.5 67.5 77.5Z" fill="url(#paint0_linear_722_973)"/>
</g>
<defs>
<linearGradient id="paint0_linear_722_973" x1="50" y1="0" x2="50" y2="100" gradientUnits="userSpaceOnUse">
<stop stop-color="#06AA9D"/>
<stop offset="1" stop-color="#00D3C2"/>
</linearGradient>
<clipPath id="clip0_722_973">
<rect width="100" height="100" fill="white"/>
</clipPath>
</defs>
</svg>
