<svg width="100" height="100" viewBox="0 0 100 100" fill="none" xmlns="http://www.w3.org/2000/svg">
<path d="M71.7042 84.925C68.5058 84.925 64.0644 89.19 60.8525 89.19C56.9619 89.19 53.3407 84.925 50.0008 84.925C46.661 84.925 43.0364 89.19 39.1509 89.19C35.9407 89.19 31.4993 84.925 28.2992 84.925C25.1985 84.925 19.7348 87.4366 18 88.275C18.0034 88.97 18.064 89.6933 18.1044 90.4033C20.6662 89.14 24.4962 87.48 26.9484 87.48C30.3456 87.48 35.0615 92.1033 38.4738 92.1033C42.607 92.1033 46.4555 87.48 50.0025 87.48C53.5496 87.48 57.3981 92.1033 61.5313 92.1033C64.9436 92.1033 69.6628 87.48 73.0583 87.48C75.5173 87.48 79.3692 89.1533 81.9309 90.4183L82 88.275C80.2686 87.4383 74.8032 84.925 71.7042 84.925Z" fill="url(#paint0_linear_722_972)"/>
<path d="M60.6285 96.4483C56.817 96.4483 53.2717 92.1833 50.0008 92.1833C46.7317 92.1833 43.1847 96.4483 39.3715 96.4483C36.2304 96.4483 31.8783 92.1833 28.7456 92.1833C25.7358 92.1833 20.459 94.9017 18.7074 95.85C18.9331 97.1217 19.1958 98.405 19.5445 99.7267C19.5445 99.7267 26.2175 95.735 29.6972 95.735C32.6884 95.735 36.8451 99.9983 39.8465 99.9983C43.4862 99.9983 46.8766 95.735 49.9992 95.735C53.1218 95.735 56.5139 100 60.1535 100C63.1532 100 67.3133 95.7367 70.3012 95.7367C73.7775 95.7367 80.4539 99.7283 80.4539 99.7283C80.788 98.4484 81.0673 97.155 81.2909 95.8517C79.5427 94.9067 74.2609 92.185 71.2545 92.185C68.1201 92.185 63.7696 96.4483 60.6285 96.4483Z" fill="url(#paint1_linear_722_972)"/>
<path d="M27.7182 82.9717C31.0008 82.9717 35.56 87.2367 38.8578 87.2367C42.8512 87.2367 46.5717 82.9717 49.9992 82.9717C53.4266 82.9717 57.1488 87.2367 61.1405 87.2367C64.4417 87.2367 68.9976 82.9717 72.2852 82.9717C75.0322 82.9717 79.6033 84.7917 81.9427 85.8583C80.9069 66.7883 67.0556 54.2767 62.5974 45.1817H63.4749V35.1817H62.4492C64.5798 29.4417 68.5731 21.83 66.6615 13.9767C66.6615 13.9767 66.2438 13.9783 65.5398 14.0167V0H63.4917V14.195C59.8925 14.5967 53.9993 15.7583 49.9992 19.135C45.9991 15.7567 40.1025 14.5967 36.5032 14.195V0H34.4602V14.0183C33.7579 13.98 33.3385 13.9783 33.3385 13.9783C31.4235 21.8317 35.4186 29.4417 37.5508 35.1833H36.5218V45.1833H37.4009C32.9444 54.2783 19.1032 66.7917 18.064 85.8583C20.4051 84.7883 24.9678 82.9717 27.7182 82.9717ZM61.7923 37.0567V43.3067H59.5152V43.31C63.9684 51.515 65.5229 65.4517 65.5229 65.4517L57.2768 68.3817C57.2768 68.3817 57.2701 56.795 54.4675 44.7483C55.0199 44.2017 55.3719 43.265 55.5404 42.185L58.9594 49.6433C58.6663 46.81 56.9046 43.6433 55.6128 41.59C55.7543 40.0217 55.5471 38.2817 55.0233 37.0567H61.7923ZM47.1275 36.0033C48.3014 34.8417 52.411 34.8417 53.5866 36.0033C54.7774 37.18 55.537 42.8933 53.5866 44.8217C52.4178 45.9767 48.2947 45.9767 47.1275 44.8217C44.9767 42.6933 46.0344 37.085 47.1275 36.0033ZM41.62 43.3067H38.206V37.0567H45.6892C45.1974 38.2033 44.9801 39.8067 45.0744 41.2983C43.5097 43.485 42.3863 45.8383 41.9114 46.805L45.1771 42.2083C45.295 42.965 45.5022 43.6533 45.8087 44.185C44.239 49.3217 42.8512 58.2 42.8512 58.2L36.4712 56.7417C36.4712 56.7417 38.0275 49.1783 41.62 43.3067Z" fill="url(#paint2_linear_722_972)"/>
<defs>
<linearGradient id="paint0_linear_722_972" x1="50" y1="0" x2="50" y2="100" gradientUnits="userSpaceOnUse">
<stop stop-color="#9600E6"/>
<stop offset="1" stop-color="#6B00A4"/>
</linearGradient>
<linearGradient id="paint1_linear_722_972" x1="50" y1="0" x2="50" y2="100" gradientUnits="userSpaceOnUse">
<stop stop-color="#9600E6"/>
<stop offset="1" stop-color="#6B00A4"/>
</linearGradient>
<linearGradient id="paint2_linear_722_972" x1="50" y1="0" x2="50" y2="100" gradientUnits="userSpaceOnUse">
<stop stop-color="#9600E6"/>
<stop offset="1" stop-color="#6B00A4"/>
</linearGradient>
</defs>
</svg>
